<mxfile host="app.diagrams.net" modified="2020-04-16T06:10:43.100Z" agent="5.0 (Windows NT 10.0; Win64; x64) AppleWebKit/537.36 (KHTML, like Gecko) Chrome/81.0.4044.113 Safari/537.36" etag="XPeHSSJ6MsCHDn_hC0Qf" version="12.9.12" type="github">
  <diagram id="0_bkN9K-rY-Ne2_8XW2i" name="Page-1">
    <mxGraphModel dx="1103" dy="1664" grid="1" gridSize="10" guides="1" tooltips="1" connect="1" arrows="1" fold="1" page="1" pageScale="1" pageWidth="827" pageHeight="1169" math="0" shadow="0">
      <root>
        <mxCell id="0" />
        <mxCell id="1" parent="0" />
        <mxCell id="EH2mo0Jq_GTWh8T8V1y9-1" value="" style="rounded=0;whiteSpace=wrap;html=1;fontFamily=Times New Roman;fontSize=14;" parent="1" vertex="1">
          <mxGeometry x="354" y="130" width="160" height="40" as="geometry" />
        </mxCell>
        <mxCell id="EH2mo0Jq_GTWh8T8V1y9-7" value="y" style="text;html=1;align=center;verticalAlign=middle;resizable=0;points=[];autosize=1;fontFamily=Times New Roman;fontSize=14;" parent="1" vertex="1">
          <mxGeometry x="191" y="505" width="20" height="20" as="geometry" />
        </mxCell>
        <mxCell id="EH2mo0Jq_GTWh8T8V1y9-9" value="" style="endArrow=none;dashed=1;html=1;fontFamily=Times New Roman;fontSize=14;" parent="1" edge="1">
          <mxGeometry width="50" height="50" relative="1" as="geometry">
            <mxPoint x="100" y="302" as="sourcePoint" />
            <mxPoint x="100" y="-6" as="targetPoint" />
          </mxGeometry>
        </mxCell>
        <mxCell id="EH2mo0Jq_GTWh8T8V1y9-11" value="" style="endArrow=none;dashed=1;html=1;fontFamily=Times New Roman;fontSize=14;" parent="1" edge="1">
          <mxGeometry width="50" height="50" relative="1" as="geometry">
            <mxPoint x="136" y="302" as="sourcePoint" />
            <mxPoint x="136" y="-5" as="targetPoint" />
          </mxGeometry>
        </mxCell>
        <mxCell id="EH2mo0Jq_GTWh8T8V1y9-12" value="" style="endArrow=none;dashed=1;html=1;fontFamily=Times New Roman;fontSize=14;" parent="1" edge="1">
          <mxGeometry width="50" height="50" relative="1" as="geometry">
            <mxPoint x="200" y="302" as="sourcePoint" />
            <mxPoint x="200" y="-8" as="targetPoint" />
          </mxGeometry>
        </mxCell>
        <mxCell id="EH2mo0Jq_GTWh8T8V1y9-13" value="" style="verticalLabelPosition=bottom;verticalAlign=top;html=1;shape=mxgraph.flowchart.or;fontFamily=Times New Roman;fontSize=14;" parent="1" vertex="1">
          <mxGeometry x="90" y="-29" width="20" height="20" as="geometry" />
        </mxCell>
        <mxCell id="EH2mo0Jq_GTWh8T8V1y9-16" value="" style="verticalLabelPosition=bottom;verticalAlign=top;html=1;shape=mxgraph.flowchart.or;fontFamily=Times New Roman;fontSize=14;" parent="1" vertex="1">
          <mxGeometry x="125" y="-29" width="20" height="20" as="geometry" />
        </mxCell>
        <mxCell id="EH2mo0Jq_GTWh8T8V1y9-17" value="" style="verticalLabelPosition=bottom;verticalAlign=top;html=1;shape=mxgraph.flowchart.or;fontFamily=Times New Roman;fontSize=14;" parent="1" vertex="1">
          <mxGeometry x="190" y="-29" width="20" height="20" as="geometry" />
        </mxCell>
        <mxCell id="EH2mo0Jq_GTWh8T8V1y9-18" value="" style="verticalLabelPosition=bottom;verticalAlign=top;html=1;shape=mxgraph.flowchart.summing_function;fontFamily=Times New Roman;fontSize=14;" parent="1" vertex="1">
          <mxGeometry x="117" y="-76" width="20" height="20" as="geometry" />
        </mxCell>
        <mxCell id="EH2mo0Jq_GTWh8T8V1y9-24" value="" style="endArrow=classic;html=1;exitX=0.599;exitY=-0.001;exitDx=0;exitDy=0;exitPerimeter=0;entryX=0.462;entryY=1.004;entryDx=0;entryDy=0;entryPerimeter=0;fontFamily=Times New Roman;fontSize=14;" parent="1" source="EH2mo0Jq_GTWh8T8V1y9-13" target="EH2mo0Jq_GTWh8T8V1y9-18" edge="1">
          <mxGeometry width="50" height="50" relative="1" as="geometry">
            <mxPoint x="90" y="-25" as="sourcePoint" />
            <mxPoint x="150" y="-55" as="targetPoint" />
          </mxGeometry>
        </mxCell>
        <mxCell id="EH2mo0Jq_GTWh8T8V1y9-25" value="" style="endArrow=classic;html=1;exitX=0.5;exitY=0;exitDx=0;exitDy=0;exitPerimeter=0;entryX=0.5;entryY=1;entryDx=0;entryDy=0;entryPerimeter=0;fontFamily=Times New Roman;fontSize=14;" parent="1" source="EH2mo0Jq_GTWh8T8V1y9-17" target="EH2mo0Jq_GTWh8T8V1y9-18" edge="1">
          <mxGeometry width="50" height="50" relative="1" as="geometry">
            <mxPoint x="119.97999999999996" y="-19.019999999999982" as="sourcePoint" />
            <mxPoint x="150" y="-55" as="targetPoint" />
          </mxGeometry>
        </mxCell>
        <mxCell id="EH2mo0Jq_GTWh8T8V1y9-26" value="" style="endArrow=classic;html=1;exitX=0.5;exitY=0;exitDx=0;exitDy=0;exitPerimeter=0;entryX=0.5;entryY=1;entryDx=0;entryDy=0;entryPerimeter=0;fontFamily=Times New Roman;fontSize=14;" parent="1" source="EH2mo0Jq_GTWh8T8V1y9-16" target="EH2mo0Jq_GTWh8T8V1y9-18" edge="1">
          <mxGeometry width="50" height="50" relative="1" as="geometry">
            <mxPoint x="202.99999999999994" y="-19" as="sourcePoint" />
            <mxPoint x="150" y="-55" as="targetPoint" />
          </mxGeometry>
        </mxCell>
        <mxCell id="EH2mo0Jq_GTWh8T8V1y9-27" value="&lt;font style=&quot;font-size: 22px&quot;&gt;y&lt;/font&gt;&lt;sub&gt;&lt;font style=&quot;font-size: 12px&quot;&gt;1&lt;/font&gt;&lt;/sub&gt;" style="text;html=1;align=center;verticalAlign=middle;resizable=0;points=[];autosize=1;fontFamily=Times New Roman;fontSize=14;fontStyle=2" parent="1" vertex="1">
          <mxGeometry x="50" y="321" width="30" height="30" as="geometry" />
        </mxCell>
        <mxCell id="EH2mo0Jq_GTWh8T8V1y9-28" value="&lt;font style=&quot;font-size: 22px&quot;&gt;y&lt;/font&gt;&lt;span style=&quot;font-size: 14px&quot;&gt;&lt;sub&gt;2&lt;/sub&gt;&lt;/span&gt;" style="text;html=1;align=center;verticalAlign=middle;resizable=0;points=[];autosize=1;fontFamily=Times New Roman;fontSize=14;fontStyle=2" parent="1" vertex="1">
          <mxGeometry x="87" y="321" width="30" height="30" as="geometry" />
        </mxCell>
        <mxCell id="EH2mo0Jq_GTWh8T8V1y9-29" value="&lt;font style=&quot;font-size: 22px&quot;&gt;y&lt;/font&gt;&lt;sub style=&quot;font-size: 14px&quot;&gt;3&lt;/sub&gt;" style="text;html=1;align=center;verticalAlign=middle;resizable=0;points=[];autosize=1;fontFamily=Times New Roman;fontSize=14;fontStyle=2" parent="1" vertex="1">
          <mxGeometry x="123" y="321" width="30" height="30" as="geometry" />
        </mxCell>
        <mxCell id="EH2mo0Jq_GTWh8T8V1y9-30" value="&lt;font style=&quot;font-size: 22px&quot;&gt;y&lt;/font&gt;&lt;sub style=&quot;font-size: 14px&quot;&gt;&lt;font style=&quot;font-size: 14px&quot;&gt;k&lt;/font&gt;&lt;/sub&gt;" style="text;html=1;align=center;verticalAlign=middle;resizable=0;points=[];autosize=1;fontFamily=Times New Roman;fontSize=14;fontStyle=2" parent="1" vertex="1">
          <mxGeometry x="187" y="321" width="30" height="30" as="geometry" />
        </mxCell>
        <mxCell id="EH2mo0Jq_GTWh8T8V1y9-32" value="" style="endArrow=none;dashed=1;html=1;fontFamily=Times New Roman;fontSize=14;" parent="1" edge="1">
          <mxGeometry width="50" height="50" relative="1" as="geometry">
            <mxPoint x="63.65999999999988" y="302" as="sourcePoint" />
            <mxPoint x="63.65999999999988" y="-6" as="targetPoint" />
          </mxGeometry>
        </mxCell>
        <mxCell id="EH2mo0Jq_GTWh8T8V1y9-34" value="" style="verticalLabelPosition=bottom;verticalAlign=top;html=1;shape=mxgraph.flowchart.or;fontFamily=Times New Roman;fontSize=14;" parent="1" vertex="1">
          <mxGeometry x="54" y="-29" width="20" height="20" as="geometry" />
        </mxCell>
        <mxCell id="EH2mo0Jq_GTWh8T8V1y9-35" value="" style="endArrow=classic;html=1;exitX=0.5;exitY=0;exitDx=0;exitDy=0;exitPerimeter=0;entryX=0.441;entryY=1.028;entryDx=0;entryDy=0;entryPerimeter=0;fontFamily=Times New Roman;fontSize=14;" parent="1" source="EH2mo0Jq_GTWh8T8V1y9-34" target="EH2mo0Jq_GTWh8T8V1y9-18" edge="1">
          <mxGeometry width="50" height="50" relative="1" as="geometry">
            <mxPoint x="58.00000000000002" y="-38.100000000000215" as="sourcePoint" />
            <mxPoint x="75.25999999999979" y="-64.99999999999984" as="targetPoint" />
          </mxGeometry>
        </mxCell>
        <mxCell id="EH2mo0Jq_GTWh8T8V1y9-73" value="" style="endArrow=none;dashed=1;html=1;fontFamily=Times New Roman;fontSize=14;" parent="1" edge="1">
          <mxGeometry width="50" height="50" relative="1" as="geometry">
            <mxPoint x="310" y="301" as="sourcePoint" />
            <mxPoint x="310" y="-6.999999999999773" as="targetPoint" />
          </mxGeometry>
        </mxCell>
        <mxCell id="EH2mo0Jq_GTWh8T8V1y9-74" value="" style="endArrow=none;dashed=1;html=1;fontFamily=Times New Roman;fontSize=14;" parent="1" edge="1">
          <mxGeometry width="50" height="50" relative="1" as="geometry">
            <mxPoint x="346" y="301" as="sourcePoint" />
            <mxPoint x="346" y="-6" as="targetPoint" />
          </mxGeometry>
        </mxCell>
        <mxCell id="EH2mo0Jq_GTWh8T8V1y9-76" value="" style="verticalLabelPosition=bottom;verticalAlign=top;html=1;shape=mxgraph.flowchart.or;fontFamily=Times New Roman;fontSize=14;" parent="1" vertex="1">
          <mxGeometry x="300" y="-30" width="20" height="20" as="geometry" />
        </mxCell>
        <mxCell id="EH2mo0Jq_GTWh8T8V1y9-77" value="" style="verticalLabelPosition=bottom;verticalAlign=top;html=1;shape=mxgraph.flowchart.or;fontFamily=Times New Roman;fontSize=14;" parent="1" vertex="1">
          <mxGeometry x="335" y="-30" width="20" height="20" as="geometry" />
        </mxCell>
        <mxCell id="EH2mo0Jq_GTWh8T8V1y9-78" value="" style="verticalLabelPosition=bottom;verticalAlign=top;html=1;shape=mxgraph.flowchart.or;fontFamily=Times New Roman;fontSize=14;" parent="1" vertex="1">
          <mxGeometry x="400" y="-30" width="20" height="20" as="geometry" />
        </mxCell>
        <mxCell id="EH2mo0Jq_GTWh8T8V1y9-79" value="" style="verticalLabelPosition=bottom;verticalAlign=top;html=1;shape=mxgraph.flowchart.summing_function;fontFamily=Times New Roman;fontSize=14;" parent="1" vertex="1">
          <mxGeometry x="327" y="-77" width="20" height="20" as="geometry" />
        </mxCell>
        <mxCell id="EH2mo0Jq_GTWh8T8V1y9-80" value="" style="endArrow=classic;html=1;exitX=0.599;exitY=-0.001;exitDx=0;exitDy=0;exitPerimeter=0;entryX=0.462;entryY=1.004;entryDx=0;entryDy=0;entryPerimeter=0;fontFamily=Times New Roman;fontSize=14;" parent="1" source="EH2mo0Jq_GTWh8T8V1y9-76" target="EH2mo0Jq_GTWh8T8V1y9-79" edge="1">
          <mxGeometry width="50" height="50" relative="1" as="geometry">
            <mxPoint x="300" y="-26" as="sourcePoint" />
            <mxPoint x="360" y="-56" as="targetPoint" />
          </mxGeometry>
        </mxCell>
        <mxCell id="EH2mo0Jq_GTWh8T8V1y9-81" value="" style="endArrow=classic;html=1;exitX=0.5;exitY=0;exitDx=0;exitDy=0;exitPerimeter=0;entryX=0.5;entryY=1;entryDx=0;entryDy=0;entryPerimeter=0;fontFamily=Times New Roman;fontSize=14;" parent="1" source="EH2mo0Jq_GTWh8T8V1y9-78" target="EH2mo0Jq_GTWh8T8V1y9-79" edge="1">
          <mxGeometry width="50" height="50" relative="1" as="geometry">
            <mxPoint x="329.97999999999996" y="-20.019999999999982" as="sourcePoint" />
            <mxPoint x="360" y="-56" as="targetPoint" />
          </mxGeometry>
        </mxCell>
        <mxCell id="EH2mo0Jq_GTWh8T8V1y9-82" value="" style="endArrow=classic;html=1;exitX=0.5;exitY=0;exitDx=0;exitDy=0;exitPerimeter=0;entryX=0.5;entryY=1;entryDx=0;entryDy=0;entryPerimeter=0;fontFamily=Times New Roman;fontSize=14;" parent="1" source="EH2mo0Jq_GTWh8T8V1y9-77" target="EH2mo0Jq_GTWh8T8V1y9-79" edge="1">
          <mxGeometry width="50" height="50" relative="1" as="geometry">
            <mxPoint x="412.99999999999994" y="-20" as="sourcePoint" />
            <mxPoint x="360" y="-56" as="targetPoint" />
          </mxGeometry>
        </mxCell>
        <mxCell id="EH2mo0Jq_GTWh8T8V1y9-83" value="&lt;font style=&quot;font-size: 22px&quot;&gt;y&lt;/font&gt;&lt;sub&gt;&lt;font style=&quot;font-size: 12px&quot;&gt;1&lt;/font&gt;&lt;/sub&gt;" style="text;html=1;align=center;verticalAlign=middle;resizable=0;points=[];autosize=1;fontFamily=Times New Roman;fontSize=14;fontStyle=2" parent="1" vertex="1">
          <mxGeometry x="260" y="320" width="30" height="30" as="geometry" />
        </mxCell>
        <mxCell id="EH2mo0Jq_GTWh8T8V1y9-84" value="&lt;font style=&quot;font-size: 22px&quot;&gt;y&lt;/font&gt;&lt;span style=&quot;font-size: 14px&quot;&gt;&lt;sub&gt;2&lt;/sub&gt;&lt;/span&gt;" style="text;html=1;align=center;verticalAlign=middle;resizable=0;points=[];autosize=1;fontFamily=Times New Roman;fontSize=14;fontStyle=2" parent="1" vertex="1">
          <mxGeometry x="297" y="320" width="30" height="30" as="geometry" />
        </mxCell>
        <mxCell id="EH2mo0Jq_GTWh8T8V1y9-85" value="&lt;font style=&quot;font-size: 22px&quot;&gt;y&lt;/font&gt;&lt;sub style=&quot;font-size: 14px&quot;&gt;3&lt;/sub&gt;" style="text;html=1;align=center;verticalAlign=middle;resizable=0;points=[];autosize=1;fontFamily=Times New Roman;fontSize=14;fontStyle=2" parent="1" vertex="1">
          <mxGeometry x="333" y="320" width="30" height="30" as="geometry" />
        </mxCell>
        <mxCell id="EH2mo0Jq_GTWh8T8V1y9-86" value="&lt;font style=&quot;font-size: 22px&quot;&gt;y&lt;/font&gt;&lt;sub style=&quot;font-size: 14px&quot;&gt;&lt;font style=&quot;font-size: 14px&quot;&gt;k&lt;/font&gt;&lt;/sub&gt;" style="text;html=1;align=center;verticalAlign=middle;resizable=0;points=[];autosize=1;fontFamily=Times New Roman;fontSize=14;fontStyle=2" parent="1" vertex="1">
          <mxGeometry x="397" y="320" width="30" height="30" as="geometry" />
        </mxCell>
        <mxCell id="EH2mo0Jq_GTWh8T8V1y9-87" value="" style="endArrow=none;dashed=1;html=1;fontFamily=Times New Roman;fontSize=14;" parent="1" edge="1">
          <mxGeometry width="50" height="50" relative="1" as="geometry">
            <mxPoint x="273.65999999999985" y="301" as="sourcePoint" />
            <mxPoint x="273.65999999999985" y="-6.999999999999773" as="targetPoint" />
          </mxGeometry>
        </mxCell>
        <mxCell id="EH2mo0Jq_GTWh8T8V1y9-88" value="" style="verticalLabelPosition=bottom;verticalAlign=top;html=1;shape=mxgraph.flowchart.or;fontFamily=Times New Roman;fontSize=14;" parent="1" vertex="1">
          <mxGeometry x="264" y="-30" width="20" height="20" as="geometry" />
        </mxCell>
        <mxCell id="EH2mo0Jq_GTWh8T8V1y9-89" value="" style="endArrow=classic;html=1;exitX=0.5;exitY=0;exitDx=0;exitDy=0;exitPerimeter=0;entryX=0.441;entryY=1.028;entryDx=0;entryDy=0;entryPerimeter=0;fontFamily=Times New Roman;fontSize=14;" parent="1" source="EH2mo0Jq_GTWh8T8V1y9-88" target="EH2mo0Jq_GTWh8T8V1y9-79" edge="1">
          <mxGeometry width="50" height="50" relative="1" as="geometry">
            <mxPoint x="268" y="-39.100000000000215" as="sourcePoint" />
            <mxPoint x="285.25999999999976" y="-65.99999999999984" as="targetPoint" />
          </mxGeometry>
        </mxCell>
        <mxCell id="EH2mo0Jq_GTWh8T8V1y9-90" value="" style="endArrow=none;dashed=1;html=1;fontFamily=Times New Roman;fontSize=14;" parent="1" edge="1">
          <mxGeometry width="50" height="50" relative="1" as="geometry">
            <mxPoint x="520" y="302" as="sourcePoint" />
            <mxPoint x="520" y="-5.999999999999773" as="targetPoint" />
          </mxGeometry>
        </mxCell>
        <mxCell id="EH2mo0Jq_GTWh8T8V1y9-91" value="" style="endArrow=none;dashed=1;html=1;fontFamily=Times New Roman;fontSize=14;" parent="1" edge="1">
          <mxGeometry width="50" height="50" relative="1" as="geometry">
            <mxPoint x="556" y="302" as="sourcePoint" />
            <mxPoint x="556" y="-5" as="targetPoint" />
          </mxGeometry>
        </mxCell>
        <mxCell id="EH2mo0Jq_GTWh8T8V1y9-92" value="" style="endArrow=none;dashed=1;html=1;fontFamily=Times New Roman;fontSize=14;" parent="1" edge="1">
          <mxGeometry width="50" height="50" relative="1" as="geometry">
            <mxPoint x="620" y="302" as="sourcePoint" />
            <mxPoint x="620" y="-8" as="targetPoint" />
          </mxGeometry>
        </mxCell>
        <mxCell id="EH2mo0Jq_GTWh8T8V1y9-93" value="" style="verticalLabelPosition=bottom;verticalAlign=top;html=1;shape=mxgraph.flowchart.or;fontFamily=Times New Roman;fontSize=14;" parent="1" vertex="1">
          <mxGeometry x="510" y="-29" width="20" height="20" as="geometry" />
        </mxCell>
        <mxCell id="EH2mo0Jq_GTWh8T8V1y9-94" value="" style="verticalLabelPosition=bottom;verticalAlign=top;html=1;shape=mxgraph.flowchart.or;fontFamily=Times New Roman;fontSize=14;" parent="1" vertex="1">
          <mxGeometry x="545" y="-29" width="20" height="20" as="geometry" />
        </mxCell>
        <mxCell id="EH2mo0Jq_GTWh8T8V1y9-95" value="" style="verticalLabelPosition=bottom;verticalAlign=top;html=1;shape=mxgraph.flowchart.or;fontFamily=Times New Roman;fontSize=14;" parent="1" vertex="1">
          <mxGeometry x="610" y="-29" width="20" height="20" as="geometry" />
        </mxCell>
        <mxCell id="EH2mo0Jq_GTWh8T8V1y9-96" value="" style="verticalLabelPosition=bottom;verticalAlign=top;html=1;shape=mxgraph.flowchart.summing_function;fontFamily=Times New Roman;fontSize=14;" parent="1" vertex="1">
          <mxGeometry x="537" y="-76" width="20" height="20" as="geometry" />
        </mxCell>
        <mxCell id="EH2mo0Jq_GTWh8T8V1y9-97" value="" style="endArrow=classic;html=1;exitX=0.599;exitY=-0.001;exitDx=0;exitDy=0;exitPerimeter=0;entryX=0.462;entryY=1.004;entryDx=0;entryDy=0;entryPerimeter=0;fontFamily=Times New Roman;fontSize=14;" parent="1" source="EH2mo0Jq_GTWh8T8V1y9-93" target="EH2mo0Jq_GTWh8T8V1y9-96" edge="1">
          <mxGeometry width="50" height="50" relative="1" as="geometry">
            <mxPoint x="510" y="-25" as="sourcePoint" />
            <mxPoint x="570" y="-55" as="targetPoint" />
          </mxGeometry>
        </mxCell>
        <mxCell id="EH2mo0Jq_GTWh8T8V1y9-98" value="" style="endArrow=classic;html=1;exitX=0.5;exitY=0;exitDx=0;exitDy=0;exitPerimeter=0;entryX=0.5;entryY=1;entryDx=0;entryDy=0;entryPerimeter=0;fontFamily=Times New Roman;fontSize=14;" parent="1" source="EH2mo0Jq_GTWh8T8V1y9-95" target="EH2mo0Jq_GTWh8T8V1y9-96" edge="1">
          <mxGeometry width="50" height="50" relative="1" as="geometry">
            <mxPoint x="539.98" y="-19.019999999999982" as="sourcePoint" />
            <mxPoint x="570" y="-55" as="targetPoint" />
          </mxGeometry>
        </mxCell>
        <mxCell id="EH2mo0Jq_GTWh8T8V1y9-99" value="" style="endArrow=classic;html=1;exitX=0.5;exitY=0;exitDx=0;exitDy=0;exitPerimeter=0;entryX=0.5;entryY=1;entryDx=0;entryDy=0;entryPerimeter=0;fontFamily=Times New Roman;fontSize=14;" parent="1" source="EH2mo0Jq_GTWh8T8V1y9-94" target="EH2mo0Jq_GTWh8T8V1y9-96" edge="1">
          <mxGeometry width="50" height="50" relative="1" as="geometry">
            <mxPoint x="623" y="-19" as="sourcePoint" />
            <mxPoint x="570" y="-55" as="targetPoint" />
          </mxGeometry>
        </mxCell>
        <mxCell id="EH2mo0Jq_GTWh8T8V1y9-100" value="&lt;font style=&quot;font-size: 22px&quot;&gt;y&lt;/font&gt;&lt;sub&gt;&lt;font style=&quot;font-size: 12px&quot;&gt;1&lt;/font&gt;&lt;/sub&gt;" style="text;html=1;align=center;verticalAlign=middle;resizable=0;points=[];autosize=1;fontFamily=Times New Roman;fontSize=14;fontStyle=2" parent="1" vertex="1">
          <mxGeometry x="470" y="321" width="30" height="30" as="geometry" />
        </mxCell>
        <mxCell id="EH2mo0Jq_GTWh8T8V1y9-101" value="&lt;font style=&quot;font-size: 22px&quot;&gt;y&lt;/font&gt;&lt;span style=&quot;font-size: 14px&quot;&gt;&lt;sub&gt;2&lt;/sub&gt;&lt;/span&gt;" style="text;html=1;align=center;verticalAlign=middle;resizable=0;points=[];autosize=1;fontFamily=Times New Roman;fontSize=14;fontStyle=2" parent="1" vertex="1">
          <mxGeometry x="507" y="321" width="30" height="30" as="geometry" />
        </mxCell>
        <mxCell id="EH2mo0Jq_GTWh8T8V1y9-102" value="&lt;font style=&quot;font-size: 22px&quot;&gt;y&lt;/font&gt;&lt;sub style=&quot;font-size: 14px&quot;&gt;3&lt;/sub&gt;" style="text;html=1;align=center;verticalAlign=middle;resizable=0;points=[];autosize=1;fontFamily=Times New Roman;fontSize=14;fontStyle=2" parent="1" vertex="1">
          <mxGeometry x="543" y="321" width="30" height="30" as="geometry" />
        </mxCell>
        <mxCell id="EH2mo0Jq_GTWh8T8V1y9-103" value="&lt;font style=&quot;font-size: 22px&quot;&gt;y&lt;/font&gt;&lt;sub style=&quot;font-size: 14px&quot;&gt;&lt;font style=&quot;font-size: 14px&quot;&gt;k&lt;/font&gt;&lt;/sub&gt;" style="text;html=1;align=center;verticalAlign=middle;resizable=0;points=[];autosize=1;fontFamily=Times New Roman;fontSize=14;fontStyle=2" parent="1" vertex="1">
          <mxGeometry x="607" y="321" width="30" height="30" as="geometry" />
        </mxCell>
        <mxCell id="EH2mo0Jq_GTWh8T8V1y9-105" value="" style="verticalLabelPosition=bottom;verticalAlign=top;html=1;shape=mxgraph.flowchart.or;fontFamily=Times New Roman;fontSize=14;" parent="1" vertex="1">
          <mxGeometry x="474" y="-29" width="20" height="20" as="geometry" />
        </mxCell>
        <mxCell id="EH2mo0Jq_GTWh8T8V1y9-106" value="" style="endArrow=classic;html=1;exitX=0.5;exitY=0;exitDx=0;exitDy=0;exitPerimeter=0;entryX=0.441;entryY=1.028;entryDx=0;entryDy=0;entryPerimeter=0;fontFamily=Times New Roman;fontSize=14;" parent="1" source="EH2mo0Jq_GTWh8T8V1y9-105" target="EH2mo0Jq_GTWh8T8V1y9-96" edge="1">
          <mxGeometry width="50" height="50" relative="1" as="geometry">
            <mxPoint x="478" y="-38.100000000000215" as="sourcePoint" />
            <mxPoint x="495.25999999999976" y="-64.99999999999984" as="targetPoint" />
          </mxGeometry>
        </mxCell>
        <mxCell id="EH2mo0Jq_GTWh8T8V1y9-158" value="" style="endArrow=none;dashed=1;html=1;fontFamily=Times New Roman;fontSize=14;" parent="1" edge="1">
          <mxGeometry width="50" height="50" relative="1" as="geometry">
            <mxPoint x="730" y="302" as="sourcePoint" />
            <mxPoint x="730" y="-5.999999999999773" as="targetPoint" />
          </mxGeometry>
        </mxCell>
        <mxCell id="EH2mo0Jq_GTWh8T8V1y9-159" value="" style="endArrow=none;dashed=1;html=1;fontFamily=Times New Roman;fontSize=14;" parent="1" edge="1">
          <mxGeometry width="50" height="50" relative="1" as="geometry">
            <mxPoint x="766" y="302" as="sourcePoint" />
            <mxPoint x="766" y="-5" as="targetPoint" />
          </mxGeometry>
        </mxCell>
        <mxCell id="EH2mo0Jq_GTWh8T8V1y9-160" value="" style="endArrow=none;dashed=1;html=1;fontFamily=Times New Roman;fontSize=14;" parent="1" edge="1">
          <mxGeometry width="50" height="50" relative="1" as="geometry">
            <mxPoint x="830" y="302" as="sourcePoint" />
            <mxPoint x="830" y="-8" as="targetPoint" />
          </mxGeometry>
        </mxCell>
        <mxCell id="EH2mo0Jq_GTWh8T8V1y9-161" value="" style="verticalLabelPosition=bottom;verticalAlign=top;html=1;shape=mxgraph.flowchart.or;fontFamily=Times New Roman;fontSize=14;" parent="1" vertex="1">
          <mxGeometry x="720" y="-29" width="20" height="20" as="geometry" />
        </mxCell>
        <mxCell id="EH2mo0Jq_GTWh8T8V1y9-162" value="" style="verticalLabelPosition=bottom;verticalAlign=top;html=1;shape=mxgraph.flowchart.or;fontFamily=Times New Roman;fontSize=14;" parent="1" vertex="1">
          <mxGeometry x="755" y="-29" width="20" height="20" as="geometry" />
        </mxCell>
        <mxCell id="EH2mo0Jq_GTWh8T8V1y9-163" value="" style="verticalLabelPosition=bottom;verticalAlign=top;html=1;shape=mxgraph.flowchart.or;fontFamily=Times New Roman;fontSize=14;" parent="1" vertex="1">
          <mxGeometry x="820" y="-29" width="20" height="20" as="geometry" />
        </mxCell>
        <mxCell id="EH2mo0Jq_GTWh8T8V1y9-164" value="" style="verticalLabelPosition=bottom;verticalAlign=top;html=1;shape=mxgraph.flowchart.summing_function;fontFamily=Times New Roman;fontSize=14;" parent="1" vertex="1">
          <mxGeometry x="747" y="-76" width="20" height="20" as="geometry" />
        </mxCell>
        <mxCell id="EH2mo0Jq_GTWh8T8V1y9-165" value="" style="endArrow=classic;html=1;exitX=0.599;exitY=-0.001;exitDx=0;exitDy=0;exitPerimeter=0;entryX=0.462;entryY=1.004;entryDx=0;entryDy=0;entryPerimeter=0;fontFamily=Times New Roman;fontSize=14;" parent="1" source="EH2mo0Jq_GTWh8T8V1y9-161" target="EH2mo0Jq_GTWh8T8V1y9-164" edge="1">
          <mxGeometry width="50" height="50" relative="1" as="geometry">
            <mxPoint x="720" y="-25" as="sourcePoint" />
            <mxPoint x="780" y="-55" as="targetPoint" />
          </mxGeometry>
        </mxCell>
        <mxCell id="EH2mo0Jq_GTWh8T8V1y9-166" value="" style="endArrow=classic;html=1;exitX=0.5;exitY=0;exitDx=0;exitDy=0;exitPerimeter=0;entryX=0.5;entryY=1;entryDx=0;entryDy=0;entryPerimeter=0;fontFamily=Times New Roman;fontSize=14;" parent="1" source="EH2mo0Jq_GTWh8T8V1y9-163" target="EH2mo0Jq_GTWh8T8V1y9-164" edge="1">
          <mxGeometry width="50" height="50" relative="1" as="geometry">
            <mxPoint x="749.98" y="-19.019999999999982" as="sourcePoint" />
            <mxPoint x="780" y="-55" as="targetPoint" />
          </mxGeometry>
        </mxCell>
        <mxCell id="EH2mo0Jq_GTWh8T8V1y9-167" value="" style="endArrow=classic;html=1;exitX=0.5;exitY=0;exitDx=0;exitDy=0;exitPerimeter=0;entryX=0.5;entryY=1;entryDx=0;entryDy=0;entryPerimeter=0;fontFamily=Times New Roman;fontSize=14;" parent="1" source="EH2mo0Jq_GTWh8T8V1y9-162" target="EH2mo0Jq_GTWh8T8V1y9-164" edge="1">
          <mxGeometry width="50" height="50" relative="1" as="geometry">
            <mxPoint x="833" y="-19" as="sourcePoint" />
            <mxPoint x="780" y="-55" as="targetPoint" />
          </mxGeometry>
        </mxCell>
        <mxCell id="EH2mo0Jq_GTWh8T8V1y9-168" value="&lt;font style=&quot;font-size: 22px&quot;&gt;y&lt;/font&gt;&lt;sub&gt;&lt;font style=&quot;font-size: 12px&quot;&gt;1&lt;/font&gt;&lt;/sub&gt;" style="text;html=1;align=center;verticalAlign=middle;resizable=0;points=[];autosize=1;fontFamily=Times New Roman;fontSize=14;fontStyle=2" parent="1" vertex="1">
          <mxGeometry x="680" y="321" width="30" height="30" as="geometry" />
        </mxCell>
        <mxCell id="EH2mo0Jq_GTWh8T8V1y9-169" value="&lt;font style=&quot;font-size: 22px&quot;&gt;y&lt;/font&gt;&lt;span style=&quot;font-size: 14px&quot;&gt;&lt;sub&gt;2&lt;/sub&gt;&lt;/span&gt;" style="text;html=1;align=center;verticalAlign=middle;resizable=0;points=[];autosize=1;fontFamily=Times New Roman;fontSize=14;fontStyle=2" parent="1" vertex="1">
          <mxGeometry x="717" y="321" width="30" height="30" as="geometry" />
        </mxCell>
        <mxCell id="EH2mo0Jq_GTWh8T8V1y9-170" value="&lt;font style=&quot;font-size: 22px&quot;&gt;y&lt;/font&gt;&lt;sub style=&quot;font-size: 14px&quot;&gt;3&lt;/sub&gt;" style="text;html=1;align=center;verticalAlign=middle;resizable=0;points=[];autosize=1;fontFamily=Times New Roman;fontSize=14;fontStyle=2" parent="1" vertex="1">
          <mxGeometry x="753" y="321" width="30" height="30" as="geometry" />
        </mxCell>
        <mxCell id="EH2mo0Jq_GTWh8T8V1y9-171" value="&lt;font style=&quot;font-size: 22px&quot;&gt;y&lt;/font&gt;&lt;sub style=&quot;font-size: 14px&quot;&gt;&lt;font style=&quot;font-size: 14px&quot;&gt;k&lt;/font&gt;&lt;/sub&gt;" style="text;html=1;align=center;verticalAlign=middle;resizable=0;points=[];autosize=1;fontFamily=Times New Roman;fontSize=14;fontStyle=2" parent="1" vertex="1">
          <mxGeometry x="817" y="321" width="30" height="30" as="geometry" />
        </mxCell>
        <mxCell id="EH2mo0Jq_GTWh8T8V1y9-172" value="" style="endArrow=none;dashed=1;html=1;fontFamily=Times New Roman;fontSize=14;" parent="1" edge="1">
          <mxGeometry width="50" height="50" relative="1" as="geometry">
            <mxPoint x="693.6599999999999" y="302" as="sourcePoint" />
            <mxPoint x="693.6599999999999" y="-5.999999999999773" as="targetPoint" />
          </mxGeometry>
        </mxCell>
        <mxCell id="EH2mo0Jq_GTWh8T8V1y9-173" value="" style="verticalLabelPosition=bottom;verticalAlign=top;html=1;shape=mxgraph.flowchart.or;fontFamily=Times New Roman;fontSize=14;" parent="1" vertex="1">
          <mxGeometry x="684" y="-29" width="20" height="20" as="geometry" />
        </mxCell>
        <mxCell id="EH2mo0Jq_GTWh8T8V1y9-174" value="" style="endArrow=classic;html=1;exitX=0.5;exitY=0;exitDx=0;exitDy=0;exitPerimeter=0;entryX=0.441;entryY=1.028;entryDx=0;entryDy=0;entryPerimeter=0;fontFamily=Times New Roman;fontSize=14;" parent="1" source="EH2mo0Jq_GTWh8T8V1y9-173" target="EH2mo0Jq_GTWh8T8V1y9-164" edge="1">
          <mxGeometry width="50" height="50" relative="1" as="geometry">
            <mxPoint x="688" y="-38.100000000000215" as="sourcePoint" />
            <mxPoint x="705.2599999999998" y="-64.99999999999984" as="targetPoint" />
          </mxGeometry>
        </mxCell>
        <mxCell id="EH2mo0Jq_GTWh8T8V1y9-175" value="" style="endArrow=classic;html=1;fontFamily=Times New Roman;fontSize=14;" parent="1" edge="1">
          <mxGeometry width="50" height="50" relative="1" as="geometry">
            <mxPoint x="69" y="321" as="sourcePoint" />
            <mxPoint x="372" y="230" as="targetPoint" />
          </mxGeometry>
        </mxCell>
        <mxCell id="EH2mo0Jq_GTWh8T8V1y9-176" value="" style="endArrow=classic;html=1;fontFamily=Times New Roman;fontSize=14;" parent="1" edge="1">
          <mxGeometry width="50" height="50" relative="1" as="geometry">
            <mxPoint x="107" y="321" as="sourcePoint" />
            <mxPoint x="410" y="230" as="targetPoint" />
          </mxGeometry>
        </mxCell>
        <mxCell id="EH2mo0Jq_GTWh8T8V1y9-177" value="" style="endArrow=classic;html=1;fontFamily=Times New Roman;fontSize=14;" parent="1" edge="1">
          <mxGeometry width="50" height="50" relative="1" as="geometry">
            <mxPoint x="144" y="320" as="sourcePoint" />
            <mxPoint x="447" y="229" as="targetPoint" />
          </mxGeometry>
        </mxCell>
        <mxCell id="EH2mo0Jq_GTWh8T8V1y9-178" value="" style="endArrow=classic;html=1;fontFamily=Times New Roman;fontSize=14;" parent="1" edge="1">
          <mxGeometry width="50" height="50" relative="1" as="geometry">
            <mxPoint x="204" y="320" as="sourcePoint" />
            <mxPoint x="507" y="229.00000000000023" as="targetPoint" />
          </mxGeometry>
        </mxCell>
        <mxCell id="EH2mo0Jq_GTWh8T8V1y9-179" value="" style="endArrow=classic;html=1;fontFamily=Times New Roman;fontSize=14;" parent="1" edge="1">
          <mxGeometry width="50" height="50" relative="1" as="geometry">
            <mxPoint x="280" y="320" as="sourcePoint" />
            <mxPoint x="370" y="230" as="targetPoint" />
          </mxGeometry>
        </mxCell>
        <mxCell id="EH2mo0Jq_GTWh8T8V1y9-182" value="" style="endArrow=classic;html=1;fontFamily=Times New Roman;fontSize=14;" parent="1" edge="1">
          <mxGeometry width="50" height="50" relative="1" as="geometry">
            <mxPoint x="318" y="320" as="sourcePoint" />
            <mxPoint x="408" y="230" as="targetPoint" />
          </mxGeometry>
        </mxCell>
        <mxCell id="EH2mo0Jq_GTWh8T8V1y9-183" value="" style="endArrow=classic;html=1;fontFamily=Times New Roman;fontSize=14;" parent="1" edge="1">
          <mxGeometry width="50" height="50" relative="1" as="geometry">
            <mxPoint x="355" y="320" as="sourcePoint" />
            <mxPoint x="445" y="230" as="targetPoint" />
          </mxGeometry>
        </mxCell>
        <mxCell id="EH2mo0Jq_GTWh8T8V1y9-184" value="" style="endArrow=classic;html=1;fontFamily=Times New Roman;fontSize=14;" parent="1" edge="1">
          <mxGeometry width="50" height="50" relative="1" as="geometry">
            <mxPoint x="414" y="320" as="sourcePoint" />
            <mxPoint x="504" y="230" as="targetPoint" />
          </mxGeometry>
        </mxCell>
        <mxCell id="EH2mo0Jq_GTWh8T8V1y9-185" value="" style="endArrow=classic;html=1;fontFamily=Times New Roman;fontSize=14;" parent="1" edge="1">
          <mxGeometry width="50" height="50" relative="1" as="geometry">
            <mxPoint x="483" y="320" as="sourcePoint" />
            <mxPoint x="370" y="230" as="targetPoint" />
          </mxGeometry>
        </mxCell>
        <mxCell id="EH2mo0Jq_GTWh8T8V1y9-186" value="" style="endArrow=classic;html=1;fontFamily=Times New Roman;fontSize=14;" parent="1" edge="1">
          <mxGeometry width="50" height="50" relative="1" as="geometry">
            <mxPoint x="527" y="320" as="sourcePoint" />
            <mxPoint x="410" y="230" as="targetPoint" />
          </mxGeometry>
        </mxCell>
        <mxCell id="EH2mo0Jq_GTWh8T8V1y9-187" value="" style="endArrow=classic;html=1;fontFamily=Times New Roman;fontSize=14;" parent="1" edge="1">
          <mxGeometry width="50" height="50" relative="1" as="geometry">
            <mxPoint x="563" y="320" as="sourcePoint" />
            <mxPoint x="446" y="230" as="targetPoint" />
          </mxGeometry>
        </mxCell>
        <mxCell id="EH2mo0Jq_GTWh8T8V1y9-188" value="" style="endArrow=classic;html=1;fontFamily=Times New Roman;fontSize=14;" parent="1" edge="1">
          <mxGeometry width="50" height="50" relative="1" as="geometry">
            <mxPoint x="623" y="320" as="sourcePoint" />
            <mxPoint x="506" y="230" as="targetPoint" />
          </mxGeometry>
        </mxCell>
        <mxCell id="EH2mo0Jq_GTWh8T8V1y9-189" value="" style="endArrow=classic;html=1;fontFamily=Times New Roman;fontSize=14;" parent="1" edge="1">
          <mxGeometry width="50" height="50" relative="1" as="geometry">
            <mxPoint x="697" y="321" as="sourcePoint" />
            <mxPoint x="370" y="231" as="targetPoint" />
          </mxGeometry>
        </mxCell>
        <mxCell id="EH2mo0Jq_GTWh8T8V1y9-190" value="" style="endArrow=classic;html=1;fontFamily=Times New Roman;fontSize=14;" parent="1" edge="1">
          <mxGeometry width="50" height="50" relative="1" as="geometry">
            <mxPoint x="738" y="321" as="sourcePoint" />
            <mxPoint x="411" y="231" as="targetPoint" />
          </mxGeometry>
        </mxCell>
        <mxCell id="EH2mo0Jq_GTWh8T8V1y9-191" value="" style="endArrow=classic;html=1;fontFamily=Times New Roman;fontSize=14;" parent="1" edge="1">
          <mxGeometry width="50" height="50" relative="1" as="geometry">
            <mxPoint x="775" y="321" as="sourcePoint" />
            <mxPoint x="448" y="231" as="targetPoint" />
          </mxGeometry>
        </mxCell>
        <mxCell id="EH2mo0Jq_GTWh8T8V1y9-192" value="" style="endArrow=classic;html=1;fontFamily=Times New Roman;fontSize=14;" parent="1" edge="1">
          <mxGeometry width="50" height="50" relative="1" as="geometry">
            <mxPoint x="834" y="320" as="sourcePoint" />
            <mxPoint x="507" y="230" as="targetPoint" />
          </mxGeometry>
        </mxCell>
        <mxCell id="fndQNwA-PfIZW3IFsdeX-1" value="" style="endArrow=classic;html=1;" edge="1" parent="1">
          <mxGeometry width="50" height="50" relative="1" as="geometry">
            <mxPoint x="370" y="200" as="sourcePoint" />
            <mxPoint x="370" y="170" as="targetPoint" />
          </mxGeometry>
        </mxCell>
        <mxCell id="fndQNwA-PfIZW3IFsdeX-2" value="" style="endArrow=classic;html=1;" edge="1" parent="1">
          <mxGeometry width="50" height="50" relative="1" as="geometry">
            <mxPoint x="414" y="199.99999999999977" as="sourcePoint" />
            <mxPoint x="414" y="169.99999999999977" as="targetPoint" />
          </mxGeometry>
        </mxCell>
        <mxCell id="fndQNwA-PfIZW3IFsdeX-3" value="" style="endArrow=classic;html=1;" edge="1" parent="1">
          <mxGeometry width="50" height="50" relative="1" as="geometry">
            <mxPoint x="940.0000000000001" y="189.99999999999977" as="sourcePoint" />
            <mxPoint x="940.0000000000001" y="159.99999999999977" as="targetPoint" />
          </mxGeometry>
        </mxCell>
        <mxCell id="fndQNwA-PfIZW3IFsdeX-4" value="" style="endArrow=none;dashed=1;html=1;" edge="1" parent="1">
          <mxGeometry width="50" height="50" relative="1" as="geometry">
            <mxPoint x="400.34" y="319" as="sourcePoint" />
            <mxPoint x="400" as="targetPoint" />
          </mxGeometry>
        </mxCell>
        <mxCell id="fndQNwA-PfIZW3IFsdeX-6" value="" style="endArrow=none;dashed=1;html=1;" edge="1" parent="1">
          <mxGeometry width="50" height="50" relative="1" as="geometry">
            <mxPoint x="483.9199999999999" y="308.9999999999998" as="sourcePoint" />
            <mxPoint x="483.58" y="-10" as="targetPoint" />
          </mxGeometry>
        </mxCell>
        <mxCell id="fndQNwA-PfIZW3IFsdeX-7" value="" style="endArrow=classic;html=1;" edge="1" parent="1">
          <mxGeometry width="50" height="50" relative="1" as="geometry">
            <mxPoint x="450" y="199.99999999999977" as="sourcePoint" />
            <mxPoint x="450" y="169.99999999999977" as="targetPoint" />
          </mxGeometry>
        </mxCell>
        <mxCell id="fndQNwA-PfIZW3IFsdeX-8" value="" style="endArrow=classic;html=1;" edge="1" parent="1">
          <mxGeometry width="50" height="50" relative="1" as="geometry">
            <mxPoint x="500" y="199.99999999999977" as="sourcePoint" />
            <mxPoint x="500" y="169.99999999999977" as="targetPoint" />
          </mxGeometry>
        </mxCell>
        <mxCell id="fndQNwA-PfIZW3IFsdeX-9" value="" style="endArrow=classic;html=1;" edge="1" parent="1">
          <mxGeometry width="50" height="50" relative="1" as="geometry">
            <mxPoint x="370" y="129.99999999999977" as="sourcePoint" />
            <mxPoint x="370" y="99.99999999999977" as="targetPoint" />
          </mxGeometry>
        </mxCell>
        <mxCell id="fndQNwA-PfIZW3IFsdeX-10" value="" style="endArrow=classic;html=1;" edge="1" parent="1">
          <mxGeometry width="50" height="50" relative="1" as="geometry">
            <mxPoint x="414" y="129.99999999999977" as="sourcePoint" />
            <mxPoint x="414" y="99.99999999999977" as="targetPoint" />
          </mxGeometry>
        </mxCell>
        <mxCell id="fndQNwA-PfIZW3IFsdeX-11" value="" style="endArrow=classic;html=1;" edge="1" parent="1">
          <mxGeometry width="50" height="50" relative="1" as="geometry">
            <mxPoint x="450" y="129.99999999999977" as="sourcePoint" />
            <mxPoint x="450" y="99.99999999999977" as="targetPoint" />
          </mxGeometry>
        </mxCell>
        <mxCell id="fndQNwA-PfIZW3IFsdeX-12" value="" style="endArrow=classic;html=1;" edge="1" parent="1">
          <mxGeometry width="50" height="50" relative="1" as="geometry">
            <mxPoint x="500" y="129.99999999999977" as="sourcePoint" />
            <mxPoint x="500" y="99.99999999999977" as="targetPoint" />
          </mxGeometry>
        </mxCell>
      </root>
    </mxGraphModel>
  </diagram>
</mxfile>
